<?xml version="1.0" encoding="UTF-8" standalone="no"?>
<!-- Created with Inkscape (http://www.inkscape.org/) -->

<svg
   xmlns:dc="http://purl.org/dc/elements/1.1/"
   xmlns:cc="http://creativecommons.org/ns#"
   xmlns:rdf="http://www.w3.org/1999/02/22-rdf-syntax-ns#"
   xmlns:svg="http://www.w3.org/2000/svg"
   xmlns="http://www.w3.org/2000/svg"
   version="1.1"
   width="177.77344"
   height="372.7876"
   id="svg2"
   xml:space="preserve"><metadata
     id="metadata8"><rdf:RDF><cc:Work
         rdf:about=""><dc:format>image/svg+xml</dc:format><dc:type
           rdf:resource="http://purl.org/dc/dcmitype/StillImage" /><dc:title></dc:title></cc:Work></rdf:RDF></metadata><defs
     id="defs6"><clipPath
       id="clipPath16"><path
         d="m 0,-0.2 793.6,0 0,595.2 L 0,595 0,-0.2 z"
         id="path18" /></clipPath><clipPath
       id="clipPath68"><path
         d="m 431,219.4 61.4,0 0,17.5 -61.4,0 0,-17.5 z"
         id="path70" /></clipPath><clipPath
       id="clipPath102"><path
         d="m 462.8,271.6 22.6,0 0,25 -22.6,0 0,-25 z"
         id="path104" /></clipPath><clipPath
       id="clipPath114"><path
         d="m 502.5,215.6 23,0 0,35.5 -23,0 0,-35.5 z"
         id="path116" /></clipPath><clipPath
       id="clipPath126"><path
         d="m 0,-0.2 793.6,0 0,595.2 L 0,595 0,-0.2 z"
         id="path128" /></clipPath><clipPath
       id="clipPath142"><path
         d="m 450,130.5 24,0 0,35.3 -24,0 0,-35.3 z"
         id="path144" /></clipPath><clipPath
       id="clipPath154"><path
         d="m 0,-0.2 793.6,0 0,595.2 L 0,595 0,-0.2 z"
         id="path156" /></clipPath><clipPath
       id="clipPath192"><path
         d="m 504.5,391 21.6,0 0,35.3 -21.6,0 0,-35.3 z"
         id="path194" /></clipPath><clipPath
       id="clipPath204"><path
         d="m 419.4,390.8 22.5,0 0,35.3 -22.5,0 0,-35.3 z"
         id="path206" /></clipPath><clipPath
       id="clipPath216"><path
         d="m 397,81 0,0 0,433.1 0,0 0,-433.1 z"
         id="path218" /></clipPath></defs><g
     transform="matrix(1.25,0,0,-1.25,-495.72266,534.32178)"
     id="g10"><g
       id="g12"><g
         clip-path="url(#clipPath16)"
         id="g14"><g
           id="g20"><path
             d="m 411.3,222.2 0,0 z"
             id="path22"
             style="fill:none;stroke:#87ceeb;stroke-width:3.62179995;stroke-linecap:butt;stroke-linejoin:round;stroke-miterlimit:10;stroke-opacity:1;stroke-dasharray:none" /></g><g
           id="g24"><path
             d="m 421.3,222.2 0,2.3"
             id="path26"
             style="fill:none;stroke:#87ceeb;stroke-width:3.62179995;stroke-linecap:butt;stroke-linejoin:round;stroke-miterlimit:10;stroke-opacity:1;stroke-dasharray:none" /></g><g
           id="g28"><path
             d="m 431.4,222.2 0,14.6"
             id="path30"
             style="fill:none;stroke:#87ceeb;stroke-width:3.62179995;stroke-linecap:butt;stroke-linejoin:round;stroke-miterlimit:10;stroke-opacity:1;stroke-dasharray:none" /></g><g
           id="g32"><path
             d="m 441.5,222.2 0,41.7"
             id="path34"
             style="fill:none;stroke:#87ceeb;stroke-width:3.62179995;stroke-linecap:butt;stroke-linejoin:round;stroke-miterlimit:10;stroke-opacity:1;stroke-dasharray:none" /></g><g
           id="g36"><path
             d="m 451.6,222.2 0,68.2"
             id="path38"
             style="fill:none;stroke:#87ceeb;stroke-width:3.62179995;stroke-linecap:butt;stroke-linejoin:round;stroke-miterlimit:10;stroke-opacity:1;stroke-dasharray:none" /></g><g
           id="g40"><path
             d="m 461.7,222.2 0,69.7"
             id="path42"
             style="fill:none;stroke:#87ceeb;stroke-width:3.62179995;stroke-linecap:butt;stroke-linejoin:round;stroke-miterlimit:10;stroke-opacity:1;stroke-dasharray:none" /></g><g
           id="g44"><path
             d="m 471.7,222.2 0,45.6"
             id="path46"
             style="fill:none;stroke:#87ceeb;stroke-width:3.62179995;stroke-linecap:butt;stroke-linejoin:round;stroke-miterlimit:10;stroke-opacity:1;stroke-dasharray:none" /></g><g
           id="g48"><path
             d="m 481.8,222.2 0,18.7"
             id="path50"
             style="fill:none;stroke:#87ceeb;stroke-width:3.62179995;stroke-linecap:butt;stroke-linejoin:round;stroke-miterlimit:10;stroke-opacity:1;stroke-dasharray:none" /></g><g
           id="g52"><path
             d="m 491.9,222.2 0,4.4"
             id="path54"
             style="fill:none;stroke:#87ceeb;stroke-width:3.62179995;stroke-linecap:butt;stroke-linejoin:round;stroke-miterlimit:10;stroke-opacity:1;stroke-dasharray:none" /></g><g
           id="g56"><path
             d="m 502,222.2 0,0.5"
             id="path58"
             style="fill:none;stroke:#87ceeb;stroke-width:3.62179995;stroke-linecap:butt;stroke-linejoin:round;stroke-miterlimit:10;stroke-opacity:1;stroke-dasharray:none" /></g><g
           id="g60"><path
             d="m 512,222.2 0,0 z"
             id="path62"
             style="fill:none;stroke:#87ceeb;stroke-width:3.62179995;stroke-linecap:butt;stroke-linejoin:round;stroke-miterlimit:10;stroke-opacity:1;stroke-dasharray:none" /></g><g
           id="g64"><g
             id="g66" /><g
             id="g72"><g
               clip-path="url(#clipPath68)"
               id="g74"
               style="opacity:0.5"><path
                 d="m 431,236.8 61.3,0 0,-17.4 -61.3,0 0,17.4 z"
                 id="path76"
                 style="fill:#ffffff;fill-opacity:1;fill-rule:evenodd;stroke:none" /></g></g></g><g
           id="g78"><path
             d="m 401.2,216.9 120.9,0"
             id="path80"
             style="fill:none;stroke:#000000;stroke-width:1.20726001;stroke-linecap:round;stroke-linejoin:round;stroke-miterlimit:10;stroke-opacity:1;stroke-dasharray:none" /></g><path
           d="m 435,234.2 0,-10.6 1.1,0 0,0.9 c 0.6,-0.8 1.4,-1.2 2.4,-1.2 2,0 3.3,1.6 3.3,4.1 0,2.5 -1.2,4 -3.2,4 -1.1,0 -1.8,-0.4 -2.4,-1.2 l 0,4 -1.2,0 z m 3.3,-3.9 c 1.4,0 2.3,-1.2 2.3,-3 0,-1.7 -0.9,-2.9 -2.3,-2.9 -1.2,0 -2.1,1.2 -2.1,2.9 0,1.8 0.9,3 2.1,3 z"
           id="path82"
           style="fill:#000000;fill-opacity:1;fill-rule:evenodd;stroke:none" /><path
           d="m 444.5,231.2 -1.2,0 0,-7.6 1.2,0 0,7.6 z m 0,3 -1.2,0 0,-1.6 1.2,0 0,1.6 z"
           id="path84"
           style="fill:#000000;fill-opacity:1;fill-rule:evenodd;stroke:none" /><path
           d="m 446.5,231.2 0,-7.6 1.3,0 0,4.2 c 0,1.5 0.8,2.6 2,2.6 1,0 1.6,-0.6 1.6,-1.6 l 0,-5.2 1.2,0 0,5.7 c 0,1.3 -1,2.1 -2.4,2.1 -1.1,0 -1.9,-0.4 -2.6,-1.5 l 0,1.3 -1.1,0 z"
           id="path86"
           style="fill:#000000;fill-opacity:1;fill-rule:evenodd;stroke:none" /><path
           d="m 457.5,231.4 c -2.1,0 -3.4,-1.5 -3.4,-4.1 0,-2.5 1.3,-4 3.4,-4 2.2,0 3.5,1.5 3.5,4 0,2.6 -1.3,4.1 -3.5,4.1 z m 0,-1.1 c 1.4,0 2.2,-1.1 2.2,-3 0,-1.8 -0.8,-2.9 -2.2,-2.9 -1.3,0 -2.1,1.1 -2.1,2.9 0,1.9 0.8,3 2.1,3 z"
           id="path88"
           style="fill:#000000;fill-opacity:1;fill-rule:evenodd;stroke:none" /><path
           d="m 462.7,231.2 0,-7.6 1.2,0 0,4.8 c 0,1.1 0.8,2 1.8,2 0.9,0 1.4,-0.6 1.4,-1.6 l 0,-5.2 1.2,0 0,4.8 c 0,1.1 0.8,2 1.8,2 0.9,0 1.4,-0.6 1.4,-1.6 l 0,-5.2 1.2,0 0,5.7 c 0,1.4 -0.8,2.1 -2.2,2.1 -1,0 -1.6,-0.3 -2.3,-1.2 -0.5,0.9 -1.1,1.2 -2.1,1.2 -1,0 -1.6,-0.4 -2.3,-1.3 l 0,1.1 -1.1,0 z"
           id="path90"
           style="fill:#000000;fill-opacity:1;fill-rule:evenodd;stroke:none" /><path
           d="m 475.9,231.2 -1.2,0 0,-7.6 1.2,0 0,7.6 z m 0,3 -1.2,0 0,-1.6 1.2,0 0,1.6 z"
           id="path92"
           style="fill:#000000;fill-opacity:1;fill-rule:evenodd;stroke:none" /><path
           d="m 484.7,224.3 c -0.1,0 -0.1,0 -0.2,0 -0.5,0 -0.7,0.2 -0.7,0.6 l 0,4.4 c 0,1.4 -1,2.1 -2.8,2.1 -1.2,0 -2.1,-0.3 -2.6,-0.9 -0.3,-0.4 -0.5,-0.8 -0.5,-1.6 l 1.2,0 c 0.2,1 0.7,1.4 1.8,1.4 1.1,0 1.7,-0.4 1.7,-1.1 l 0,-0.4 c 0,-0.5 -0.3,-0.7 -1.2,-0.8 -1.7,-0.2 -2,-0.3 -2.5,-0.5 -0.9,-0.3 -1.3,-1 -1.3,-2 0,-1.4 0.9,-2.2 2.5,-2.2 0.9,0 1.7,0.3 2.6,1.1 0,-0.8 0.4,-1.1 1.2,-1.1 0.3,0 0.5,0 0.8,0.1 l 0,0.9 z m -2.1,1.7 c 0,-0.4 -0.1,-0.7 -0.5,-1 -0.5,-0.5 -1,-0.7 -1.8,-0.7 -0.9,0 -1.4,0.5 -1.4,1.2 0,0.8 0.5,1.2 1.8,1.4 1.2,0.2 1.5,0.2 1.9,0.4 l 0,-1.3 z"
           id="path94"
           style="fill:#000000;fill-opacity:1;fill-rule:evenodd;stroke:none" /><path
           d="m 487.2,234.2 -1.2,0 0,-10.6 1.2,0 0,10.6 z"
           id="path96"
           style="fill:#000000;fill-opacity:1;fill-rule:evenodd;stroke:none" /></g></g><g
       id="g98"><g
         clip-path="url(#clipPath102)"
         id="g100"><text
           transform="matrix(1,0,0,-1,465.8,273.3)"
           id="text106"><tspan
             x="0"
             y="0"
             id="tspan108"
             style="font-size:32px;font-variant:normal;font-weight:normal;writing-mode:lr-tb;fill:#000000;fill-opacity:1;fill-rule:nonzero;stroke:none;font-family:OpenSymbol;-inkscape-font-specification:OpenSymbol">θ</tspan></text>
</g></g><g
       id="g110"><g
         clip-path="url(#clipPath114)"
         id="g112"><text
           transform="matrix(1,0,0,-1,506.3,222.7)"
           id="text118"><tspan
             x="0"
             y="0"
             id="tspan120"
             style="font-size:32px;font-style:italic;font-variant:normal;writing-mode:lr-tb;fill:#000000;fill-opacity:1;fill-rule:nonzero;stroke:none;font-family:Times New Roman;-inkscape-font-specification:TimesNewRomanPS-ItalicMT">n</tspan></text>
</g></g><g
       id="g122"><g
         clip-path="url(#clipPath126)"
         id="g124"><path
           d="m 474.1,352.2 0.8,-36.7"
           id="path130"
           style="fill:none;stroke:#000000;stroke-width:0.81999999;stroke-linecap:butt;stroke-linejoin:miter;stroke-miterlimit:10;stroke-opacity:1;stroke-dasharray:none" /><path
           d="m 475.2,303.3 3.9,12.9 -8.5,-0.2 4.6,-12.7 z"
           id="path132"
           style="fill:#000000;fill-opacity:1;fill-rule:evenodd;stroke:none" /><text
           transform="matrix(1,0,0,-1,456.2,319.7)"
           id="text134"><tspan
             x="0 12.888"
             y="0"
             id="tspan136"
             style="font-size:24px;font-style:italic;font-variant:normal;writing-mode:lr-tb;fill:#000000;fill-opacity:1;fill-rule:nonzero;stroke:none;font-family:Times New Roman;-inkscape-font-specification:TimesNewRomanPS-ItalicMT">~ </tspan></text>
</g></g><g
       id="g138"><g
         clip-path="url(#clipPath142)"
         id="g140"><text
           transform="matrix(1,0,0,-1,455.2,137.6)"
           id="text146"><tspan
             x="0"
             y="0"
             id="tspan148"
             style="font-size:31.79999924px;font-style:italic;font-variant:normal;writing-mode:lr-tb;fill:#000000;fill-opacity:1;fill-rule:nonzero;stroke:none;font-family:Times New Roman;-inkscape-font-specification:TimesNewRomanPS-ItalicMT">x</tspan></text>
</g></g><g
       id="g150"><g
         clip-path="url(#clipPath154)"
         id="g152"><path
           d="m 461.7,214.9 0.2,-36.8"
           id="path158"
           style="fill:none;stroke:#000000;stroke-width:0.81999999;stroke-linecap:butt;stroke-linejoin:miter;stroke-miterlimit:10;stroke-opacity:1;stroke-dasharray:none" /><path
           d="m 462,165.9 4.1,12.8 -8.5,-0.1 4.4,-12.7 z"
           id="path160"
           style="fill:#000000;fill-opacity:1;fill-rule:evenodd;stroke:none" /><text
           transform="matrix(1,0,0,-1,443.3,182.3)"
           id="text162"><tspan
             x="0 12.984"
             y="0"
             id="tspan164"
             style="font-size:24px;font-style:italic;font-variant:normal;writing-mode:lr-tb;fill:#000000;fill-opacity:1;fill-rule:nonzero;stroke:none;font-family:Times New Roman;-inkscape-font-specification:TimesNewRomanPS-ItalicMT">~ </tspan></text>
<g
           id="g166"><path
             d="m 431.3,359.5 0.1,34.8 84.6,0 0.1,-34.8"
             id="path168"
             style="fill:none;stroke:#87ceeb;stroke-width:1.81089997;stroke-linecap:round;stroke-linejoin:round;stroke-miterlimit:10;stroke-opacity:1;stroke-dasharray:none" /></g><g
           id="g170"><path
             d="m 413.2,354.1 121,0"
             id="path172"
             style="fill:none;stroke:#000000;stroke-width:1.20726001;stroke-linecap:round;stroke-linejoin:round;stroke-miterlimit:10;stroke-opacity:1;stroke-dasharray:none" /></g><path
           d="m 456.1,360.9 0,7.6 -1.2,0 0,-4.3 c 0,-1.6 -0.8,-2.6 -2.1,-2.6 -0.9,0 -1.6,0.6 -1.6,1.5 l 0,5.4 -1.1,0 0,-5.9 c 0,-1.3 0.9,-2.1 2.4,-2.1 1.1,0 1.8,0.4 2.5,1.4 l 0,-1 1.1,0 z"
           id="path174"
           style="fill:#000000;fill-opacity:1;fill-rule:evenodd;stroke:none" /><path
           d="m 458.2,368.5 0,-7.6 1.2,0 0,4.2 c 0,1.5 0.8,2.5 2.1,2.5 0.9,0 1.5,-0.6 1.5,-1.5 l 0,-5.2 1.2,0 0,5.7 c 0,1.3 -0.9,2.1 -2.4,2.1 -1.1,0 -1.8,-0.4 -2.5,-1.5 l 0,1.3 -1.1,0 z"
           id="path176"
           style="fill:#000000;fill-opacity:1;fill-rule:evenodd;stroke:none" /><path
           d="m 467.4,368.5 -1.2,0 0,-7.6 1.2,0 0,7.6 z m 0,3 -1.2,0 0,-1.6 1.2,0 0,1.6 z"
           id="path178"
           style="fill:#000000;fill-opacity:1;fill-rule:evenodd;stroke:none" /><path
           d="m 472.2,368.5 -1.3,0 0,1.1 c 0,0.6 0.3,0.8 0.9,0.8 0.1,0 0.1,0 0.4,0 l 0,1 c -0.3,0.1 -0.4,0.1 -0.7,0.1 -1.1,0 -1.8,-0.6 -1.8,-1.7 l 0,-1.3 -1,0 0,-1 1,0 0,-6.6 1.2,0 0,6.6 1.3,0 0,1 z"
           id="path180"
           style="fill:#000000;fill-opacity:1;fill-rule:evenodd;stroke:none" /><path
           d="m 476.4,368.7 c -2.1,0 -3.4,-1.5 -3.4,-4.1 0,-2.6 1.3,-4.1 3.4,-4.1 2.2,0 3.5,1.5 3.5,4 0,2.7 -1.3,4.2 -3.5,4.2 z m 0,-1.1 c 1.4,0 2.2,-1.1 2.2,-3 0,-1.8 -0.8,-2.9 -2.2,-2.9 -1.3,0 -2.1,1.1 -2.1,2.9 0,1.8 0.8,3 2.1,3 z"
           id="path182"
           style="fill:#000000;fill-opacity:1;fill-rule:evenodd;stroke:none" /><path
           d="m 481.6,368.5 0,-7.6 1.2,0 0,3.9 c 0,1.1 0.3,1.8 0.8,2.2 0.4,0.3 0.8,0.4 1.6,0.4 l 0,1.2 c -0.2,0.1 -0.3,0.1 -0.4,0.1 -0.8,0 -1.4,-0.5 -2.1,-1.6 l 0,1.4 -1.1,0 z"
           id="path184"
           style="fill:#000000;fill-opacity:1;fill-rule:evenodd;stroke:none" /><path
           d="m 486.4,368.5 0,-7.6 1.2,0 0,4.7 c 0,1.2 0.8,2 1.8,2 0.9,0 1.4,-0.5 1.4,-1.5 l 0,-5.2 1.3,0 0,4.7 c 0,1.2 0.8,2 1.7,2 0.9,0 1.4,-0.5 1.4,-1.5 l 0,-5.2 1.3,0 0,5.7 c 0,1.3 -0.8,2.1 -2.3,2.1 -1,0 -1.6,-0.3 -2.3,-1.2 -0.4,0.8 -1.1,1.2 -2,1.2 -1,0 -1.7,-0.4 -2.4,-1.3 l 0,1.1 -1.1,0 z"
           id="path186"
           style="fill:#000000;fill-opacity:1;fill-rule:evenodd;stroke:none" /></g></g><g
       id="g188"><g
         clip-path="url(#clipPath192)"
         id="g190"><text
           transform="matrix(0.99822,0,0,-1,507.5,397.9)"
           id="text196"><tspan
             x="0"
             y="0"
             id="tspan198"
             style="font-size:31.89999962px;font-variant:normal;font-weight:normal;writing-mode:lr-tb;fill:#000000;fill-opacity:1;fill-rule:nonzero;stroke:none;font-family:Times New Roman;-inkscape-font-specification:TimesNewRomanPSMT">1</tspan></text>
</g></g><g
       id="g200"><g
         clip-path="url(#clipPath204)"
         id="g202"><text
           transform="matrix(0.99733,0,0,-1,422.5,397.9)"
           id="text208"><tspan
             x="0"
             y="0"
             id="tspan210"
             style="font-size:31.89999962px;font-variant:normal;font-weight:normal;writing-mode:lr-tb;fill:#000000;fill-opacity:1;fill-rule:nonzero;stroke:none;font-family:Times New Roman;-inkscape-font-specification:TimesNewRomanPSMT">0</tspan></text>
</g></g><g
       id="g212"><g
         id="g214" /><g
         id="g220"><g
           clip-path="url(#clipPath216)"
           id="g222"
           style="opacity:0.5" /></g></g></g></svg>